<svg width="128" height="128" viewBox="45 20 110 110" role="img" xmlns="http://www.w3.org/2000/svg">
  <line x1="100" y1="30" x2="145" y2="56" stroke="#c9b08a" stroke-width="1.5" stroke-linecap="round"/>
  <line x1="145" y1="56"  x2="145" y2="108" stroke="#c9b08a" stroke-width="1.8" stroke-linecap="round"/>
  <line x1="145" y1="108" x2="100" y2="134" stroke="#c9b08a" stroke-width="1.4" stroke-linecap="round"/>
  <line x1="100" y1="134" x2="55"  y2="108" stroke="#c9b08a" stroke-width="1.6" stroke-linecap="round"/>
  <line x1="55"  y1="108" x2="55"  y2="56"  stroke="#c9b08a" stroke-width="1.2" stroke-linecap="round"/>
  <line x1="55"  y1="56"  x2="100" y2="30"  stroke="#c9b08a" stroke-width="1.5" stroke-linecap="round"/>

  <line x1="100" y1="82" x2="100" y2="30"  stroke="#9f3b19" stroke-width="4.6" stroke-linecap="round"/>
  <line x1="100" y1="82" x2="145" y2="56"  stroke="#9f3b19" stroke-width="4.1" stroke-linecap="round"/>
  <line x1="100" y1="82" x2="145" y2="108" stroke="#9f3b19" stroke-width="3.5" stroke-linecap="round"/>
  <line x1="100" y1="82" x2="100" y2="134" stroke="#9f3b19" stroke-width="3.8" stroke-linecap="round"/>
  <line x1="100" y1="82" x2="55"  y2="108" stroke="#9f3b19" stroke-width="2.9" stroke-linecap="round"/>
  <line x1="100" y1="82" x2="55"  y2="56"  stroke="#9f3b19" stroke-width="3.2" stroke-linecap="round"/>

  <circle cx="100" cy="30"  r="5" fill="#ede4d2" stroke="#6c5b44" stroke-width="1.5"/>
  <circle cx="145" cy="56"  r="5" fill="#ede4d2" stroke="#6c5b44" stroke-width="1.5"/>
  <circle cx="145" cy="108" r="5" fill="#ede4d2" stroke="#6c5b44" stroke-width="1.5"/>
  <circle cx="100" cy="134" r="5" fill="#ede4d2" stroke="#6c5b44" stroke-width="1.5"/>
  <circle cx="55"  cy="108" r="5" fill="#ede4d2" stroke="#6c5b44" stroke-width="1.5"/>
  <circle cx="55"  cy="56"  r="5" fill="#ede4d2" stroke="#6c5b44" stroke-width="1.5"/>

  <circle cx="100" cy="82" r="8.5" fill="#fff4e2" stroke="#9f3b19" stroke-width="2.5"/>
  <circle cx="100" cy="82" r="3.5" fill="#9f3b19"/>
</svg>
