<svg width="680" height="165" viewBox="0 0 680 165" role="img" xmlns="http://www.w3.org/2000/svg">
  <title>Paragi</title>
  <desc>Paragi logo — hexagonal knowledge graph mark with hub node and weighted edges, beside the Paragi wordmark</desc>

  <line x1="100" y1="30" x2="145" y2="56" stroke="#e8d8bc" stroke-width="1.0" stroke-linecap="round"/>
  <line x1="145" y1="56" x2="100" y2="134" stroke="#e8d8bc" stroke-width="0.8" stroke-linecap="round" stroke-dasharray="4 3"/>
  <line x1="55" y1="56" x2="145" y2="108" stroke="#e8d8bc" stroke-width="0.8" stroke-linecap="round" stroke-dasharray="4 3"/>

  <line x1="100" y1="30"  x2="145" y2="56"  stroke="#c9b08a" stroke-width="1.5" stroke-linecap="round"/>
  <line x1="145" y1="56"  x2="145" y2="108" stroke="#c9b08a" stroke-width="1.8" stroke-linecap="round"/>
  <line x1="145" y1="108" x2="100" y2="134" stroke="#c9b08a" stroke-width="1.4" stroke-linecap="round"/>
  <line x1="100" y1="134" x2="55"  y2="108" stroke="#c9b08a" stroke-width="1.6" stroke-linecap="round"/>
  <line x1="55"  y1="108" x2="55"  y2="56"  stroke="#c9b08a" stroke-width="1.2" stroke-linecap="round"/>
  <line x1="55"  y1="56"  x2="100" y2="30"  stroke="#c9b08a" stroke-width="1.5" stroke-linecap="round"/>

  <line x1="100" y1="82" x2="100" y2="30"  stroke="#9f3b19" stroke-width="4.6" stroke-linecap="round"/>
  <line x1="100" y1="82" x2="145" y2="56"  stroke="#9f3b19" stroke-width="4.1" stroke-linecap="round"/>
  <line x1="100" y1="82" x2="145" y2="108" stroke="#9f3b19" stroke-width="3.5" stroke-linecap="round"/>
  <line x1="100" y1="82" x2="100" y2="134" stroke="#9f3b19" stroke-width="3.8" stroke-linecap="round"/>
  <line x1="100" y1="82" x2="55"  y2="108" stroke="#9f3b19" stroke-width="2.9" stroke-linecap="round"/>
  <line x1="100" y1="82" x2="55"  y2="56"  stroke="#9f3b19" stroke-width="3.2" stroke-linecap="round"/>

  <circle cx="100" cy="30"  r="5" fill="#ede4d2" stroke="#6c5b44" stroke-width="1.5"/>
  <circle cx="145" cy="56"  r="5" fill="#ede4d2" stroke="#6c5b44" stroke-width="1.5"/>
  <circle cx="145" cy="108" r="5" fill="#ede4d2" stroke="#6c5b44" stroke-width="1.5"/>
  <circle cx="100" cy="134" r="5" fill="#ede4d2" stroke="#6c5b44" stroke-width="1.5"/>
  <circle cx="55"  cy="108" r="5" fill="#ede4d2" stroke="#6c5b44" stroke-width="1.5"/>
  <circle cx="55"  cy="56"  r="5" fill="#ede4d2" stroke="#6c5b44" stroke-width="1.5"/>

  <circle cx="100" cy="82" r="8.5" fill="#fff4e2" stroke="#9f3b19" stroke-width="2.5"/>
  <circle cx="100" cy="82" r="3.5" fill="#9f3b19"/>

  <text x="200" y="107" font-family="'Inter','SF Pro Display','Helvetica Neue',Arial,sans-serif" font-size="70" font-weight="600" letter-spacing="-2" fill="#1f1a14">Paragi</text>
  <line x1="188" y1="48" x2="188" y2="122" stroke="#d7c2a0" stroke-width="0.8"/>
</svg>
